{
	"buffers":[{
		"uri":"data:application/octet-stream;base64,",
		"byteLength":6176
	},
	{
		"uri":"data:application/octet-stream;base64,",
		"byteLength":1136
	},
	{
		"uri":"data:application/octet-stream;base64,",
		"byteLength":446432
	}],
	"asset":{
		"version":"2.0",
		"generator":"Created using the official Cinema 4D glTF Exporter 1.000x284978"
	},
	"materials":[{
		"pbrMetallicRoughness":{
			"baseColorFactor":[0.576,
			0.8,
			0.7813333333333334,
			1.0],
			"metallicFactor":0.0,
			"roughnessFactor":0.38
		},
		"emissiveFactor":[0.0,
		0.0,
		0.0],
		"alphaMode":"OPAQUE",
		"doubleSided":true,
		"name":""
	}],
	"scenes":[{
		"nodes":[0,
		1]
	}],
	"nodes":[{
		"name":"",
		"translation":[0.0,
		-2323.67431640625,
		0.0],
		"rotation":[0.0,
		0.0,
		0.0,
		-1.0],
		"scale":[1.0,
		1.0,
		1.0],
		"mesh":0
	},
	{
		"name":"",
		"translation":[0.0,
		0.0,
		0.0],
		"rotation":[0.0,
		0.0,
		0.0,
		-1.0],
		"scale":[1.0,
		1.0,
		1.0],
		"mesh":1
	}],
	"meshes":[{
		"name":"",
		"primitives":[{
			"attributes":{
				"POSITION":1,
				"NORMAL":2,
				"TEXCOORD_0":3
			},
			"indices":0,
			"material":0
		}]
	},
	{
		"name":"",
		"primitives":[{
			"attributes":{
				"POSITION":7,
				"NORMAL":8,
				"TEXCOORD_0":9
			},
			"indices":6,
			"material":0
		}]
	}],
	"accessors":[{
		"bufferView":0,
		"type":"SCALAR",
		"componentType":5123,
		"count":672,
		"byteOffset":0,
		"min":[0],
		"max":[150]
	},
	{
		"bufferView":1,
		"type":"VEC3",
		"componentType":5126,
		"count":151,
		"byteOffset":0,
		"min":[-25.0,
		-25.0,
		-25.0],
		"max":[25.0,
		25.0,
		25.0]
	},
	{
		"bufferView":1,
		"type":"VEC3",
		"componentType":5126,
		"count":151,
		"byteOffset":12,
		"min":[-0.9999999403953552,
		-1.0,
		-0.9999999403953552],
		"max":[0.9999999403953552,
		1.0,
		0.9999999403953552]
	},
	{
		"bufferView":1,
		"type":"VEC2",
		"componentType":5126,
		"count":151,
		"byteOffset":24,
		"min":[0.0,
		0.0],
		"max":[1.0,
		1.0]
	},
	{
		"bufferView":2,
		"type":"SCALAR",
		"componentType":5126,
		"count":71,
		"byteOffset":0,
		"min":[0.0],
		"max":[2.3333332538604738]
	},
	{
		"bufferView":2,
		"type":"VEC3",
		"componentType":5126,
		"count":71,
		"byteOffset":284,
		"min":[0.0,
		-2323.67431640625,
		0.0],
		"max":[0.0,
		300.0,
		0.0]
	},
	{
		"bufferView":3,
		"type":"SCALAR",
		"componentType":5123,
		"count":60000,
		"byteOffset":0,
		"min":[0],
		"max":[10200]
	},
	{
		"bufferView":4,
		"type":"VEC3",
		"componentType":5126,
		"count":10201,
		"byteOffset":0,
		"min":[-215.4610595703125,
		-0.0046298992820084099,
		-237.4567413330078],
		"max":[215.46104431152345,
		0.0072587332688272,
		237.45675659179688]
	},
	{
		"bufferView":4,
		"type":"VEC3",
		"componentType":5126,
		"count":10201,
		"byteOffset":12,
		"min":[-0.00047986916615627706,
		0.9999998807907105,
		-0.00034357234835624695],
		"max":[0.00047986593563109636,
		1.0,
		0.0003435733378864825]
	},
	{
		"bufferView":4,
		"type":"VEC2",
		"componentType":5126,
		"count":10201,
		"byteOffset":24,
		"min":[0.0,
		0.0],
		"max":[1.0,
		1.0]
	}],
	"bufferViews":[{
		"buffer":0,
		"byteOffset":0,
		"byteLength":1344,
		"target":34963
	},
	{
		"buffer":0,
		"byteOffset":1344,
		"byteLength":4832,
		"target":34962,
		"byteStride":32
	},
	{
		"buffer":1,
		"byteOffset":0,
		"byteLength":1136
	},
	{
		"buffer":2,
		"byteOffset":0,
		"byteLength":120000,
		"target":34963
	},
	{
		"buffer":2,
		"byteOffset":120000,
		"byteLength":326432,
		"target":34962,
		"byteStride":32
	}],
	"animations":[{
		"samplers":[{
			"input":4,
			"interpolation":"LINEAR",
			"output":5
		}],
		"channels":[{
			"sampler":0,
			"target":{
				"node":0,
				"path":"translation"
			}
		}]
	}]
}