{
	"buffers":[{
		"uri":"data:application/octet-stream;base64,",
		"byteLength":20848
	},
	{
		"uri":"data:application/octet-stream;base64,",
		"byteLength":20848
	},
	{
		"uri":"data:application/octet-stream;base64,",
		"byteLength":613748
	},
	{
		"uri":"data:application/octet-stream;base64,",
		"byteLength":4020
	},
	{
		"uri":"data:application/octet-stream;base64,",
		"byteLength":4020
	},
	{
		"uri":"data:application/octet-stream;base64,",
		"byteLength":4020
	},
	{
		"uri":"data:application/octet-stream;base64,",
		"byteLength":4020
	},
	{
		"uri":"data:application/octet-stream;base64,",
		"byteLength":4020
	},
	{
		"uri":"data:application/octet-stream;base64,",
		"byteLength":4020
	},
	{
		"uri":"data:application/octet-stream;base64,",
		"byteLength":4020
	},
	{
		"uri":"data:application/octet-stream;base64,",
		"byteLength":4020
	},
	{
		"uri":"data:application/octet-stream;base64,",
		"byteLength":4020
	},
	{
		"uri":"data:application/octet-stream;base64,",
		"byteLength":4020
	},
	{
		"uri":"data:application/octet-stream;base64,",
		"byteLength":4020
	},
	{
		"uri":"data:application/octet-stream;base64,",
		"byteLength":4020
	},
	{
		"uri":"data:application/octet-stream;base64,",
		"byteLength":1728
	}],
	"asset":{
		"version":"2.0",
		"generator":"Created using the official Cinema 4D glTF Exporter 1.000x284978"
	},
	"materials":[{
		"pbrMetallicRoughness":{
			"baseColorFactor":[0.17,
			0.17,
			0.17,
			1.0],
			"metallicFactor":0.0,
			"roughnessFactor":0.5
		},
		"emissiveFactor":[0.0,
		0.0,
		0.0],
		"alphaMode":"OPAQUE",
		"doubleSided":true,
		"name":".1"
	},
	{
		"pbrMetallicRoughness":{
			"baseColorTexture":{
				"index":0
			},
			"baseColorFactor":[0.8,
			0.8,
			0.8,
			1.0],
			"metallicFactor":0.0,
			"roughnessFactor":0.5
		},
		"emissiveFactor":[0.0,
		0.0,
		0.0],
		"alphaMode":"OPAQUE",
		"doubleSided":true,
		"name":""
	}],
	"scenes":[{
		"nodes":[0,
		1,
		2]
	}],
	"nodes":[{
		"name":".1",
		"translation":[272.1967468261719,
		4.755455493927002,
		-29.859325408935548],
		"rotation":[0.0,
		0.0,
		0.0,
		-1.0],
		"scale":[1.0,
		1.0,
		1.0],
		"mesh":0
	},
	{
		"name":"",
		"translation":[272.1967468261719,
		4.755455493927002,
		29.761796951293947],
		"rotation":[0.0,
		0.0,
		0.0,
		-1.0],
		"scale":[1.0,
		1.0,
		1.0],
		"mesh":1
	},
	{
		"name":"",
		"translation":[0.0,
		0.0,
		0.0],
		"rotation":[0.0,
		0.0,
		0.0,
		-1.0],
		"scale":[1.0,
		1.0,
		1.0],
		"children":[3]
	},
	{
		"name":"",
		"translation":[0.0,
		0.0,
		0.0],
		"rotation":[0.0,
		0.0,
		0.0,
		-1.0],
		"scale":[1.0,
		1.0,
		1.0],
		"children":[4]
	},
	{
		"name":"",
		"translation":[89.16725158691406,
		4.755587100982666,
		0.0],
		"rotation":[0.0,
		0.0,
		0.0,
		-1.0],
		"scale":[1.0,
		1.0,
		1.0],
		"children":[5,
		6]
	},
	{
		"name":"",
		"mesh":2,
		"skin":0
	},
	{
		"name":"",
		"translation":[106.08876037597656,
		0.0,
		0.5126441717147827],
		"rotation":[0.0,
		0.0,
		0.0,
		-1.0],
		"scale":[1.0,
		1.0,
		1.0],
		"children":[7]
	},
	{
		"name":".1",
		"translation":[0.0,
		0.0,
		0.0],
		"rotation":[0.0,
		-0.7056303024291992,
		0.0,
		0.7085801362991333],
		"scale":[1.0,
		1.0,
		1.0],
		"children":[8]
	},
	{
		"name":".2",
		"translation":[-2.5101282678926738e-14,
		0.0,
		-122.88670349121094],
		"rotation":[0.0,
		-0.016162464395165445,
		0.0,
		0.9998694062232971],
		"scale":[1.0,
		1.0,
		1.0],
		"children":[9]
	},
	{
		"name":".3",
		"translation":[8.43769498715119e-15,
		0.0,
		-15.039697647094727],
		"rotation":[9.273641400779901e-20,
		-0.9998962879180908,
		6.4391688668552618e-18,
		0.014400429092347622],
		"scale":[1.0,
		1.0,
		1.0],
		"children":[10]
	},
	{
		"name":".4",
		"translation":[7.549516567451065e-15,
		-1.7763610745649869e-15,
		-137.91940307617188],
		"rotation":[0.0,
		-0.012638458982110024,
		0.0,
		-0.999920129776001],
		"scale":[1.0,
		1.0,
		1.0],
		"children":[11]
	},
	{
		"name":".5",
		"translation":[-1.5111105895499345e-15,
		8.881784197001253e-16,
		-20.626375198364259],
		"rotation":[0.0,
		-0.012427869252860546,
		0.0,
		-0.9999227523803711],
		"scale":[1.0,
		1.0,
		1.0],
		"children":[12]
	},
	{
		"name":".6",
		"translation":[1.931947653119458e-17,
		-1.7763568394002506e-15,
		-13.0872802734375],
		"rotation":[0.0,
		-1.0207111544868752e-10,
		0.0,
		-1.0],
		"scale":[1.0,
		1.0,
		1.0],
		"children":[13]
	},
	{
		"name":".7",
		"translation":[-8.087759100981718e-16,
		1.7763568394002506e-15,
		-18.019859313964845],
		"rotation":[0.0,
		-1.34500105497537e-10,
		0.0,
		-1.0],
		"scale":[1.0,
		1.0,
		1.0],
		"children":[14]
	},
	{
		"name":".8",
		"translation":[-1.068810842680065e-15,
		-9.898291069494571e-29,
		-18.152374267578126],
		"rotation":[-4.440892098500626e-16,
		-2.757373218642556e-10,
		-1.2245196939286967e-25,
		1.0],
		"scale":[1.0,
		1.0,
		1.0],
		"children":[15]
	},
	{
		"name":".9",
		"translation":[-7.596083474275791e-16,
		-5.434512079874127e-29,
		-20.88033676147461],
		"rotation":[4.751310086032422e-16,
		-2.5987800800209018e-10,
		1.2347610806307285e-25,
		1.0],
		"scale":[1.0,
		1.0,
		1.0],
		"children":[16]
	},
	{
		"name":".10",
		"translation":[-1.6103522519029189e-15,
		-8.881784197001253e-16,
		-23.69635772705078],
		"rotation":[0.0,
		-7.163440951529765e-10,
		0.0,
		-1.0],
		"scale":[1.0,
		1.0,
		1.0],
		"children":[17]
	},
	{
		"name":".11",
		"translation":[1.6826923596093436e-15,
		2.6645352591003758e-15,
		-26.600439071655275],
		"rotation":[0.0,
		-0.01895705796778202,
		0.0,
		-0.9998202919960022],
		"scale":[1.0,
		1.0,
		1.0],
		"children":[18]
	},
	{
		"name":".12",
		"translation":[-2.505887470387303e-15,
		-1.7763568394002506e-15,
		-25.46459197998047],
		"rotation":[0.0,
		-3.0928692940079829e-10,
		0.0,
		1.0],
		"scale":[1.0,
		1.0,
		1.0],
		"children":[19]
	},
	{
		"name":".13",
		"translation":[-6.327571167632487e-16,
		2.6645352591003758e-15,
		-20.288806915283204],
		"rotation":[0.0,
		-6.720080221456204e-12,
		0.0,
		1.0],
		"scale":[1.0,
		1.0,
		1.0],
		"children":[20]
	},
	{
		"name":".14",
		"translation":[-3.791533771245904e-15,
		-1.7763568394002506e-15,
		-15.621177673339844],
		"rotation":[0.0,
		-1.7885630476666137e-10,
		0.0,
		-1.0],
		"scale":[1.0,
		1.0,
		1.0],
		"children":[21]
	},
	{
		"name":".15",
		"translation":[7.939587098122932e-15,
		9.069005497328663e-35,
		-12.963173866271973],
		"rotation":[-6.607238815154297e-17,
		-1.4818462364970089e-15,
		9.790911677695261e-32,
		-1.0],
		"scale":[1.0,
		1.0,
		1.0],
		"children":[22]
	},
	{
		"name":".16",
		"translation":[3.6278145845193829e-15,
		6.015156695698157e-35,
		-8.576956748962403],
		"rotation":[0.0,
		-5.665538686387998e-16,
		0.0,
		1.0],
		"scale":[1.0,
		1.0,
		1.0],
		"children":[23]
	},
	{
		"name":".17",
		"translation":[-2.772996080990835e-16,
		2.7762260789419417e-35,
		-16.916336059570314],
		"rotation":[4.4408034247389607e-16,
		-0.006319355685263872,
		-2.806357673030334e-18,
		-0.9999800324440002],
		"scale":[1.0,
		1.0,
		1.0],
		"children":[24]
	},
	{
		"name":".18",
		"translation":[1.019573452730883e-15,
		-1.7763568394002506e-15,
		-22.753738403320314],
		"rotation":[6.53320661458956e-11,
		-0.006200458388775587,
		1.0536509442715669e-8,
		-0.9999807476997376],
		"scale":[1.0,
		1.0,
		1.0],
		"children":[25]
	},
	{
		"name":".19",
		"translation":[-2.566022362719385e-15,
		1.5525661561027883e-29,
		-24.527374267578126],
		"rotation":[-3.728901663657916e-18,
		-0.006155913230031729,
		2.295522973503972e-20,
		-0.9999810457229614],
		"scale":[1.0,
		1.0,
		1.0],
		"children":[26]
	},
	{
		"name":".20",
		"translation":[-3.634980218555358e-16,
		-8.881784197001253e-16,
		-22.237274169921876],
		"rotation":[0.0,
		-0.0038150958716869356,
		0.0,
		0.9999927282333374],
		"scale":[1.0,
		1.0,
		1.0],
		"children":[27]
	},
	{
		"name":".21",
		"translation":[5.220710440291456e-15,
		-8.881784197001253e-16,
		-15.883407592773438],
		"rotation":[0.0,
		-0.012337064370512963,
		0.0,
		-0.9999238848686218],
		"scale":[1.0,
		1.0,
		1.0],
		"children":[28]
	},
	{
		"name":".22",
		"translation":[-3.446501252928969e-15,
		3.881449996810659e-30,
		-12.364700317382813],
		"rotation":[0.0,
		-0.01646096259355545,
		0.0,
		-0.9998645186424255],
		"scale":[1.0,
		1.0,
		1.0],
		"children":[29]
	},
	{
		"name":".23",
		"translation":[-3.455580387332351e-15,
		-1.7763568394002506e-15,
		-11.68109130859375],
		"rotation":[8.880113424512793e-16,
		-0.019394220784306527,
		-1.7225528367520695e-17,
		-0.9998118877410889],
		"scale":[1.0,
		1.0,
		1.0],
		"children":[30]
	},
	{
		"name":".24",
		"translation":[-1.9671645632964378e-15,
		-7.958490499756664e-35,
		-16.747802734375],
		"rotation":[-4.031401961084415e-16,
		-0.03159173205494881,
		1.2742257423958812e-17,
		-0.9995008707046509],
		"scale":[1.0,
		1.0,
		1.0],
		"children":[31]
	},
	{
		"name":".25",
		"translation":[1.0396861018326705e-14,
		-3.231578339924659e-29,
		-32.10835647583008],
		"rotation":[0.0,
		-0.06315192580223084,
		0.0,
		-0.9980039000511169],
		"scale":[1.0,
		1.0,
		1.0],
		"children":[32]
	},
	{
		"name":".26",
		"translation":[-8.494676587578881e-15,
		8.881784197001253e-16,
		-19.32502555847168],
		"rotation":[-4.4144548105533906e-17,
		-0.12605173885822297,
		5.609238292355801e-18,
		-0.9920236468315125],
		"scale":[1.0,
		1.0,
		1.0],
		"children":[33]
	},
	{
		"name":".27",
		"translation":[6.559894305614212e-16,
		-4.8521557403637639e-31,
		-166.76809692382813],
		"rotation":[0.0,
		0.0,
		0.0,
		-1.0],
		"scale":[1.0,
		1.0,
		1.0]
	}],
	"meshes":[{
		"name":".1",
		"primitives":[{
			"attributes":{
				"POSITION":1,
				"NORMAL":2,
				"TEXCOORD_0":3
			},
			"indices":0,
			"material":0
		}]
	},
	{
		"name":"",
		"primitives":[{
			"attributes":{
				"POSITION":5,
				"NORMAL":6,
				"TEXCOORD_0":7
			},
			"indices":4,
			"material":0
		}]
	},
	{
		"name":"",
		"primitives":[{
			"attributes":{
				"POSITION":9,
				"NORMAL":10,
				"TEXCOORD_0":11,
				"JOINTS_0":12,
				"WEIGHTS_0":13
			},
			"indices":8,
			"material":1
		}]
	}],
	"skins":[{
		"inverseBindMatrices":38,
		"joints":[7,
		8,
		9,
		10,
		11,
		12,
		13,
		14,
		15,
		16,
		17,
		18,
		19,
		20,
		21,
		22,
		23,
		24,
		25,
		26,
		27,
		28,
		29,
		30,
		31,
		32,
		33]
	}],
	"accessors":[{
		"bufferView":0,
		"type":"SCALAR",
		"componentType":5123,
		"count":2520,
		"byteOffset":0,
		"min":[0],
		"max":[493]
	},
	{
		"bufferView":1,
		"type":"VEC3",
		"componentType":5126,
		"count":494,
		"byteOffset":0,
		"min":[-18.44791030883789,
		-18.54952621459961,
		-18.346851348876954],
		"max":[18.44791030883789,
		18.54952621459961,
		18.346851348876954]
	},
	{
		"bufferView":1,
		"type":"VEC3",
		"componentType":5126,
		"count":494,
		"byteOffset":12,
		"min":[-0.9945205450057983,
		-1.0,
		-0.9891121983528137],
		"max":[0.9945205450057983,
		1.0,
		0.9891121983528137]
	},
	{
		"bufferView":1,
		"type":"VEC2",
		"componentType":5126,
		"count":494,
		"byteOffset":24,
		"min":[0.0,
		0.0],
		"max":[1.0,
		1.0]
	},
	{
		"bufferView":2,
		"type":"SCALAR",
		"componentType":5123,
		"count":2520,
		"byteOffset":0,
		"min":[0],
		"max":[493]
	},
	{
		"bufferView":3,
		"type":"VEC3",
		"componentType":5126,
		"count":494,
		"byteOffset":0,
		"min":[-18.44791030883789,
		-18.54952621459961,
		-18.346851348876954],
		"max":[18.44791030883789,
		18.54952621459961,
		18.346851348876954]
	},
	{
		"bufferView":3,
		"type":"VEC3",
		"componentType":5126,
		"count":494,
		"byteOffset":12,
		"min":[-0.9945205450057983,
		-1.0,
		-0.9891121983528137],
		"max":[0.9945205450057983,
		1.0,
		0.9891121983528137]
	},
	{
		"bufferView":3,
		"type":"VEC2",
		"componentType":5126,
		"count":494,
		"byteOffset":24,
		"min":[0.0,
		0.0],
		"max":[1.0,
		1.0]
	},
	{
		"bufferView":4,
		"type":"SCALAR",
		"componentType":5123,
		"count":46530,
		"byteOffset":0,
		"min":[0],
		"max":[9297]
	},
	{
		"bufferView":5,
		"type":"VEC3",
		"componentType":5126,
		"count":9298,
		"byteOffset":0,
		"min":[-443.8882141113281,
		-145.90960693359376,
		-108.18692016601563],
		"max":[246.37411499023438,
		154.65113830566407,
		154.8264923095703]
	},
	{
		"bufferView":5,
		"type":"VEC3",
		"componentType":5126,
		"count":9298,
		"byteOffset":12,
		"min":[-0.9960002899169922,
		-0.9999713897705078,
		-0.9995121955871582],
		"max":[0.9996399879455566,
		0.9995050430297852,
		0.9999417662620544]
	},
	{
		"bufferView":5,
		"type":"VEC2",
		"componentType":5126,
		"count":9298,
		"byteOffset":24,
		"min":[1.1102230246251566e-16,
		0.0],
		"max":[1.0,
		1.0]
	},
	{
		"bufferView":6,
		"type":"VEC4",
		"componentType":5123,
		"count":9298,
		"byteOffset":0,
		"min":[1,
		1,
		0,
		2],
		"max":[26,
		26,
		24,
		23]
	},
	{
		"bufferView":7,
		"type":"VEC4",
		"componentType":5126,
		"count":9298,
		"byteOffset":0,
		"min":[0.49999237060546877,
		0.0,
		0.0,
		0.0],
		"max":[1.0,
		0.49999237060546877,
		0.0,
		0.0]
	},
	{
		"bufferView":8,
		"type":"SCALAR",
		"componentType":5126,
		"count":201,
		"byteOffset":0,
		"min":[0.0],
		"max":[6.666666507720947]
	},
	{
		"bufferView":8,
		"type":"VEC4",
		"componentType":5126,
		"count":201,
		"byteOffset":804,
		"min":[0.0,
		-0.017452405765652658,
		0.0,
		-1.0],
		"max":[0.0,
		-4.993427182853338e-8,
		0.0,
		1.0]
	},
	{
		"bufferView":9,
		"type":"SCALAR",
		"componentType":5126,
		"count":201,
		"byteOffset":0,
		"min":[0.0],
		"max":[6.666666507720947]
	},
	{
		"bufferView":9,
		"type":"VEC4",
		"componentType":5126,
		"count":201,
		"byteOffset":804,
		"min":[0.0,
		-0.026176948100328447,
		0.0,
		-1.0],
		"max":[0.0,
		-7.490140774280008e-8,
		0.0,
		1.0]
	},
	{
		"bufferView":10,
		"type":"SCALAR",
		"componentType":5126,
		"count":201,
		"byteOffset":0,
		"min":[0.0],
		"max":[6.666666507720947]
	},
	{
		"bufferView":10,
		"type":"VEC4",
		"componentType":5126,
		"count":201,
		"byteOffset":804,
		"min":[-4.440892098500626e-16,
		-0.008726535364985466,
		-7.450569494693582e-9,
		-1.0],
		"max":[6.406091629385102e-11,
		-2.496713591426669e-8,
		7.450569494693582e-9,
		1.0]
	},
	{
		"bufferView":11,
		"type":"SCALAR",
		"componentType":5126,
		"count":201,
		"byteOffset":0,
		"min":[0.0],
		"max":[6.666666507720947]
	},
	{
		"bufferView":11,
		"type":"VEC4",
		"componentType":5126,
		"count":201,
		"byteOffset":804,
		"min":[-3.767179297611297e-16,
		-0.008726535364985466,
		-7.450578820566989e-9,
		-1.0],
		"max":[6.477881425714927e-11,
		-2.496713591426669e-8,
		7.450578820566989e-9,
		1.0]
	},
	{
		"bufferView":12,
		"type":"SCALAR",
		"componentType":5126,
		"count":201,
		"byteOffset":0,
		"min":[0.0],
		"max":[6.666666507720947]
	},
	{
		"bufferView":12,
		"type":"VEC4",
		"componentType":5126,
		"count":201,
		"byteOffset":804,
		"min":[-3.728972387600289e-18,
		-0.008726535364985466,
		9.31017523016606e-26,
		-1.0],
		"max":[3.728972387600289e-18,
		-2.496713591426669e-8,
		3.2541010648023347e-20,
		1.0]
	},
	{
		"bufferView":13,
		"type":"SCALAR",
		"componentType":5126,
		"count":201,
		"byteOffset":0,
		"min":[0.0],
		"max":[6.666666507720947]
	},
	{
		"bufferView":13,
		"type":"VEC4",
		"componentType":5126,
		"count":201,
		"byteOffset":804,
		"min":[0.0,
		-0.11320321261882782,
		-7.450578820566989e-9,
		-1.0],
		"max":[1.7670033491956617e-10,
		-0.00005255553696770221,
		7.450580596923828e-9,
		0.9999999403953552]
	},
	{
		"bufferView":14,
		"type":"SCALAR",
		"componentType":5126,
		"count":201,
		"byteOffset":0,
		"min":[0.0],
		"max":[6.666666507720947]
	},
	{
		"bufferView":14,
		"type":"VEC4",
		"componentType":5126,
		"count":201,
		"byteOffset":804,
		"min":[0.0,
		-0.017452405765652658,
		-7.45057615603173e-9,
		-1.0],
		"max":[1.2954111394680724e-10,
		-0.00004578967855195515,
		7.450580596923828e-9,
		1.0]
	},
	{
		"bufferView":15,
		"type":"SCALAR",
		"componentType":5126,
		"count":201,
		"byteOffset":0,
		"min":[0.0],
		"max":[6.666666507720947]
	},
	{
		"bufferView":15,
		"type":"VEC4",
		"componentType":5126,
		"count":201,
		"byteOffset":804,
		"min":[0.0,
		-0.017452405765652658,
		-7.4505526193036079e-9,
		-1.0],
		"max":[1.2949946670559599e-10,
		-0.00009482476161792874,
		7.450580596923828e-9,
		1.0]
	},
	{
		"bufferView":16,
		"type":"SCALAR",
		"componentType":5126,
		"count":201,
		"byteOffset":0,
		"min":[0.0],
		"max":[6.666666507720947]
	},
	{
		"bufferView":16,
		"type":"VEC4",
		"componentType":5126,
		"count":201,
		"byteOffset":804,
		"min":[-8.881784197001253e-16,
		-0.026176948100328447,
		-7.450577932388569e-9,
		-1.0],
		"max":[1.937791871409189e-10,
		-7.490140774280008e-8,
		7.450580152834618e-9,
		1.0]
	},
	{
		"bufferView":17,
		"type":"SCALAR",
		"componentType":5126,
		"count":201,
		"byteOffset":0,
		"min":[0.0],
		"max":[6.666666507720947]
	},
	{
		"bufferView":17,
		"type":"VEC4",
		"componentType":5126,
		"count":201,
		"byteOffset":804,
		"min":[-4.03341525252092e-16,
		-0.04361938685178757,
		5.035141070300312e-23,
		-1.0],
		"max":[4.03341525252092e-16,
		-1.2483567957133347e-7,
		1.759350958918226e-17,
		1.0]
	},
	{
		"bufferView":18,
		"type":"SCALAR",
		"componentType":5126,
		"count":201,
		"byteOffset":0,
		"min":[0.0],
		"max":[6.666666507720947]
	},
	{
		"bufferView":18,
		"type":"VEC4",
		"componentType":5126,
		"count":201,
		"byteOffset":804,
		"min":[0.0,
		-0.08715574443340302,
		-7.450552175214398e-9,
		-1.0],
		"max":[6.493608983859644e-10,
		-2.496713591426669e-7,
		7.450391859009642e-9,
		1.0]
	},
	{
		"bufferView":19,
		"type":"SCALAR",
		"componentType":5126,
		"count":201,
		"byteOffset":0,
		"min":[0.0],
		"max":[6.666666507720947]
	},
	{
		"bufferView":19,
		"type":"VEC4",
		"componentType":5126,
		"count":201,
		"byteOffset":804,
		"min":[-4.449949130638041e-17,
		-0.3067324459552765,
		-7.4264376870303298e-9,
		-1.0],
		"max":[1.282148498482627e-9,
		-4.993427182853338e-7,
		1.364943715509368e-17,
		1.0]
	},
	{
		"bufferView":20,
		"type":"MAT4",
		"componentType":5126,
		"count":27,
		"byteOffset":0,
		"min":[-0.6108754873275757,
		-1.691168649564645e-9,
		-0.9999912977218628,
		0.0,
		-1.4901161193847657e-8,
		1.0,
		-7.70499752889009e-9,
		0.0,
		-0.9999997615814209,
		-1.4804882653152163e-8,
		-0.6108754873275757,
		0.0,
		-148.81358337402345,
		-9.121480968547063e-14,
		-244.0078125,
		1.0],
		"max":[0.004171681124716997,
		2.0650855159961955e-16,
		0.9999997615814209,
		0.0,
		6.1020716741342829e-18,
		1.0,
		8.753149538466478e-16,
		0.0,
		0.9999912977218628,
		7.498559012404687e-17,
		0.004171681124716997,
		0.0,
		6.445840835571289,
		5.689121618246418e-9,
		440.76007080078127,
		1.0]
	}],
	"samplers":[{
		"magFilter":9729,
		"minFilter":9729,
		"wrapS":10497,
		"wrapT":10497
	}],
	"bufferViews":[{
		"buffer":0,
		"byteOffset":0,
		"byteLength":5040,
		"target":34963
	},
	{
		"buffer":0,
		"byteOffset":5040,
		"byteLength":15808,
		"target":34962,
		"byteStride":32
	},
	{
		"buffer":1,
		"byteOffset":0,
		"byteLength":5040,
		"target":34963
	},
	{
		"buffer":1,
		"byteOffset":5040,
		"byteLength":15808,
		"target":34962,
		"byteStride":32
	},
	{
		"buffer":2,
		"byteOffset":0,
		"byteLength":93060,
		"target":34963
	},
	{
		"buffer":2,
		"byteOffset":93060,
		"byteLength":297536,
		"target":34962,
		"byteStride":32
	},
	{
		"buffer":2,
		"byteOffset":390596,
		"byteLength":74384,
		"target":34962
	},
	{
		"buffer":2,
		"byteOffset":464980,
		"byteLength":148768,
		"target":34962
	},
	{
		"buffer":3,
		"byteOffset":0,
		"byteLength":4020
	},
	{
		"buffer":4,
		"byteOffset":0,
		"byteLength":4020
	},
	{
		"buffer":5,
		"byteOffset":0,
		"byteLength":4020
	},
	{
		"buffer":6,
		"byteOffset":0,
		"byteLength":4020
	},
	{
		"buffer":7,
		"byteOffset":0,
		"byteLength":4020
	},
	{
		"buffer":8,
		"byteOffset":0,
		"byteLength":4020
	},
	{
		"buffer":9,
		"byteOffset":0,
		"byteLength":4020
	},
	{
		"buffer":10,
		"byteOffset":0,
		"byteLength":4020
	},
	{
		"buffer":11,
		"byteOffset":0,
		"byteLength":4020
	},
	{
		"buffer":12,
		"byteOffset":0,
		"byteLength":4020
	},
	{
		"buffer":13,
		"byteOffset":0,
		"byteLength":4020
	},
	{
		"buffer":14,
		"byteOffset":0,
		"byteLength":4020
	},
	{
		"buffer":15,
		"byteOffset":0,
		"byteLength":1728
	}],
	"images":[{
		"uri":"data:image/jpeg;base64,"
	}],
	"textures":[{
		"sampler":0,
		"source":0
	}],
	"animations":[{
		"samplers":[{
			"input":14,
			"interpolation":"LINEAR",
			"output":15
		},
		{
			"input":16,
			"interpolation":"LINEAR",
			"output":17
		},
		{
			"input":18,
			"interpolation":"LINEAR",
			"output":19
		},
		{
			"input":20,
			"interpolation":"LINEAR",
			"output":21
		},
		{
			"input":22,
			"interpolation":"LINEAR",
			"output":23
		},
		{
			"input":24,
			"interpolation":"LINEAR",
			"output":25
		},
		{
			"input":26,
			"interpolation":"LINEAR",
			"output":27
		},
		{
			"input":28,
			"interpolation":"LINEAR",
			"output":29
		},
		{
			"input":30,
			"interpolation":"LINEAR",
			"output":31
		},
		{
			"input":32,
			"interpolation":"LINEAR",
			"output":33
		},
		{
			"input":34,
			"interpolation":"LINEAR",
			"output":35
		},
		{
			"input":36,
			"interpolation":"LINEAR",
			"output":37
		}],
		"channels":[{
			"sampler":0,
			"target":{
				"node":10,
				"path":"rotation"
			}
		},
		{
			"sampler":1,
			"target":{
				"node":17,
				"path":"rotation"
			}
		},
		{
			"sampler":2,
			"target":{
				"node":23,
				"path":"rotation"
			}
		},
		{
			"sampler":3,
			"target":{
				"node":24,
				"path":"rotation"
			}
		},
		{
			"sampler":4,
			"target":{
				"node":25,
				"path":"rotation"
			}
		},
		{
			"sampler":5,
			"target":{
				"node":26,
				"path":"rotation"
			}
		},
		{
			"sampler":6,
			"target":{
				"node":27,
				"path":"rotation"
			}
		},
		{
			"sampler":7,
			"target":{
				"node":28,
				"path":"rotation"
			}
		},
		{
			"sampler":8,
			"target":{
				"node":29,
				"path":"rotation"
			}
		},
		{
			"sampler":9,
			"target":{
				"node":30,
				"path":"rotation"
			}
		},
		{
			"sampler":10,
			"target":{
				"node":31,
				"path":"rotation"
			}
		},
		{
			"sampler":11,
			"target":{
				"node":32,
				"path":"rotation"
			}
		}]
	}]
}