{
	"buffers":[{
		"uri":"data:application/octet-stream;base64,",
		"byteLength":1456
	},
	{
		"uri":"data:application/octet-stream;base64,",
		"byteLength":5232
	},
	{
		"uri":"data:application/octet-stream;base64,",
		"byteLength":928
	},
	{
		"uri":"data:application/octet-stream;base64,",
		"byteLength":5232
	}],
	"asset":{
		"version":"2.0",
		"generator":"Created using the official Cinema 4D glTF Exporter 1.000x284978"
	},
	"materials":[{
		"pbrMetallicRoughness":{
			"baseColorFactor":[0.17283333333333326,
			0.61,
			0.0854,
			1.0],
			"metallicFactor":0.0,
			"roughnessFactor":0.5
		},
		"emissiveFactor":[0.0,
		0.0,
		0.0],
		"alphaMode":"OPAQUE",
		"doubleSided":true,
		"name":"材质"
	}],
	"scenes":[{
		"nodes":[0]
	}],
	"nodes":[{
		"name":"布尔",
		"translation":[0.0,
		14.632610321044922,
		0.0],
		"rotation":[0.0,
		0.0,
		0.0,
		-1.0],
		"scale":[1.0,
		1.0,
		1.0],
		"children":[1,
		2,
		3]
	},
	{
		"name":"圆柱体",
		"translation":[0.0,
		0.0,
		0.0],
		"rotation":[0.0,
		0.0,
		0.0,
		-1.0],
		"scale":[1.0,
		1.0,
		1.0],
		"mesh":0
	},
	{
		"name":"金字塔",
		"translation":[-196.85801696777345,
		-1.2434497875801754e-14,
		-1.2054076744465008e-14],
		"rotation":[-0.5,
		-0.5,
		0.5,
		-0.5],
		"scale":[1.0,
		1.0,
		1.0],
		"mesh":1
	},
	{
		"name":"圆柱体.1",
		"translation":[-205.1674346923828,
		0.0,
		333.9613342285156],
		"rotation":[0.0,
		-0.8665028214454651,
		0.0,
		-0.4991722106933594],
		"scale":[1.0,
		1.0,
		1.0],
		"mesh":2
	}],
	"meshes":[{
		"name":"圆柱体",
		"primitives":[{
			"attributes":{
				"POSITION":3,
				"NORMAL":4,
				"TEXCOORD_0":5
			},
			"indices":2,
			"material":0
		}]
	},
	{
		"name":"金字塔",
		"primitives":[{
			"attributes":{
				"POSITION":7,
				"NORMAL":8,
				"TEXCOORD_0":9
			},
			"indices":6,
			"material":0
		}]
	},
	{
		"name":"圆柱体.1",
		"primitives":[{
			"attributes":{
				"POSITION":11,
				"NORMAL":12,
				"TEXCOORD_0":13
			},
			"indices":10,
			"material":0
		}]
	}],
	"accessors":[{
		"bufferView":0,
		"type":"SCALAR",
		"componentType":5126,
		"count":91,
		"byteOffset":0,
		"min":[0.0],
		"max":[3.0]
	},
	{
		"bufferView":0,
		"type":"VEC3",
		"componentType":5126,
		"count":91,
		"byteOffset":364,
		"min":[0.0,
		-10.549521446228028,
		0.0],
		"max":[0.0,
		15.150222778320313,
		0.0]
	},
	{
		"bufferView":1,
		"type":"SCALAR",
		"componentType":5123,
		"count":504,
		"byteOffset":0,
		"min":[0],
		"max":[131]
	},
	{
		"bufferView":2,
		"type":"VEC3",
		"componentType":5126,
		"count":132,
		"byteOffset":0,
		"min":[-247.7134246826172,
		-3.5754761695861818,
		-235.3131103515625],
		"max":[267.6924743652344,
		3.5754761695861818,
		235.3131103515625]
	},
	{
		"bufferView":2,
		"type":"VEC3",
		"componentType":5126,
		"count":132,
		"byteOffset":12,
		"min":[-0.9753402471542358,
		-1.0,
		-1.0],
		"max":[1.0,
		1.0,
		1.0]
	},
	{
		"bufferView":2,
		"type":"VEC2",
		"componentType":5126,
		"count":132,
		"byteOffset":24,
		"min":[0.0,
		0.0],
		"max":[1.0,
		1.0]
	},
	{
		"bufferView":3,
		"type":"SCALAR",
		"componentType":5123,
		"count":48,
		"byteOffset":0,
		"min":[0],
		"max":[25]
	},
	{
		"bufferView":4,
		"type":"VEC3",
		"componentType":5126,
		"count":26,
		"byteOffset":0,
		"min":[-88.29236602783203,
		-50.85540771484375,
		-3.5754761695861818],
		"max":[88.29236602783203,
		125.72932434082031,
		3.5754761695861818]
	},
	{
		"bufferView":4,
		"type":"VEC3",
		"componentType":5126,
		"count":26,
		"byteOffset":12,
		"min":[-0.8944272994995117,
		-0.44721364974975588,
		-0.8944272994995117],
		"max":[0.8944272994995117,
		0.0,
		0.8944272994995117]
	},
	{
		"bufferView":4,
		"type":"VEC2",
		"componentType":5126,
		"count":26,
		"byteOffset":24,
		"min":[0.0,
		0.0],
		"max":[1.0,
		1.0]
	},
	{
		"bufferView":5,
		"type":"SCALAR",
		"componentType":5123,
		"count":504,
		"byteOffset":0,
		"min":[0],
		"max":[131]
	},
	{
		"bufferView":6,
		"type":"VEC3",
		"componentType":5126,
		"count":132,
		"byteOffset":0,
		"min":[-108.98880767822266,
		-3.5754761695861818,
		-112.35990142822266],
		"max":[117.77918243408203,
		3.5754761695861818,
		112.35990142822266]
	},
	{
		"bufferView":6,
		"type":"VEC3",
		"componentType":5126,
		"count":132,
		"byteOffset":12,
		"min":[-0.9789463877677918,
		-1.0,
		-1.0],
		"max":[1.0,
		1.0,
		1.0]
	},
	{
		"bufferView":6,
		"type":"VEC2",
		"componentType":5126,
		"count":132,
		"byteOffset":24,
		"min":[0.0,
		0.0],
		"max":[1.0,
		1.0]
	}],
	"bufferViews":[{
		"buffer":0,
		"byteOffset":0,
		"byteLength":1456
	},
	{
		"buffer":1,
		"byteOffset":0,
		"byteLength":1008,
		"target":34963
	},
	{
		"buffer":1,
		"byteOffset":1008,
		"byteLength":4224,
		"target":34962,
		"byteStride":32
	},
	{
		"buffer":2,
		"byteOffset":0,
		"byteLength":96,
		"target":34963
	},
	{
		"buffer":2,
		"byteOffset":96,
		"byteLength":832,
		"target":34962,
		"byteStride":32
	},
	{
		"buffer":3,
		"byteOffset":0,
		"byteLength":1008,
		"target":34963
	},
	{
		"buffer":3,
		"byteOffset":1008,
		"byteLength":4224,
		"target":34962,
		"byteStride":32
	}],
	"animations":[{
		"samplers":[{
			"input":0,
			"interpolation":"LINEAR",
			"output":1
		}],
		"channels":[{
			"sampler":0,
			"target":{
				"node":0,
				"path":"translation"
			}
		}]
	}]
}