{
	"buffers":[{
		"uri":"data:application/octet-stream;base64,",
		"byteLength":1520
	},
	{
		"uri":"data:application/octet-stream;base64,",
		"byteLength":1520
	},
	{
		"uri":"data:application/octet-stream;base64,",
		"byteLength":1520
	},
	{
		"uri":"data:application/octet-stream;base64,",
		"byteLength":1520
	},
	{
		"uri":"data:application/octet-stream;base64,",
		"byteLength":1520
	},
	{
		"uri":"data:application/octet-stream;base64,",
		"byteLength":1520
	},
	{
		"uri":"data:application/octet-stream;base64,",
		"byteLength":1120
	},
	{
		"uri":"data:application/octet-stream;base64,",
		"byteLength":1520
	},
	{
		"uri":"data:application/octet-stream;base64,",
		"byteLength":1032
	}],
	"asset":{
		"version":"2.0",
		"generator":"Created using the official Cinema 4D glTF Exporter 1.000x284978"
	},
	"materials":[{
		"pbrMetallicRoughness":{
			"baseColorFactor":[0.39,
			0.39,
			0.39,
			1.0],
			"metallicFactor":0.0,
			"roughnessFactor":0.5
		},
		"emissiveFactor":[0.0,
		0.0,
		0.0],
		"alphaMode":"OPAQUE",
		"doubleSided":true,
		"name":"材质"
	}],
	"scenes":[{
		"nodes":[0,
		2,
		4,
		6,
		8,
		10,
		12,
		14,
		16]
	}],
	"nodes":[{
		"name":"减面.8",
		"translation":[-364.1932373046875,
		0.0,
		-381.9587707519531],
		"rotation":[0.0,
		0.0,
		0.0,
		-1.0],
		"scale":[1.0,
		1.0,
		1.0],
		"children":[1]
	},
	{
		"name":"球体",
		"translation":[0.0,
		0.0,
		0.0],
		"rotation":[0.0,
		0.0,
		0.0,
		-1.0],
		"scale":[1.0,
		1.0,
		1.0],
		"mesh":0
	},
	{
		"name":"减面.7",
		"translation":[148.04603576660157,
		0.0,
		-535.9266357421875],
		"rotation":[0.0,
		0.0,
		0.0,
		-1.0],
		"scale":[1.0,
		1.0,
		1.0],
		"children":[3]
	},
	{
		"name":"球体",
		"translation":[0.0,
		0.0,
		0.0],
		"rotation":[0.0,
		0.0,
		0.0,
		-1.0],
		"scale":[1.0,
		1.0,
		1.0],
		"mesh":1
	},
	{
		"name":"减面.6",
		"translation":[485.59100341796877,
		0.0,
		-225.0299835205078],
		"rotation":[0.0,
		0.0,
		0.0,
		-1.0],
		"scale":[1.0,
		1.0,
		1.0],
		"children":[5]
	},
	{
		"name":"球体",
		"translation":[0.0,
		0.0,
		0.0],
		"rotation":[0.0,
		0.0,
		0.0,
		-1.0],
		"scale":[1.0,
		1.0,
		1.0],
		"mesh":2
	},
	{
		"name":"减面.5",
		"translation":[470.7864074707031,
		0.0,
		-287.2093200683594],
		"rotation":[0.0,
		0.0,
		0.0,
		-1.0],
		"scale":[1.0,
		1.0,
		1.0],
		"children":[7]
	},
	{
		"name":"球体",
		"translation":[0.0,
		0.0,
		0.0],
		"rotation":[0.0,
		0.0,
		0.0,
		-1.0],
		"scale":[1.0,
		1.0,
		1.0],
		"mesh":3
	},
	{
		"name":"减面.4",
		"translation":[222.06906127929688,
		0.0,
		-485.59100341796877],
		"rotation":[0.0,
		0.0,
		0.0,
		-1.0],
		"scale":[1.0,
		1.0,
		1.0],
		"children":[9]
	},
	{
		"name":"球体",
		"translation":[0.0,
		0.0,
		0.0],
		"rotation":[0.0,
		0.0,
		0.0,
		-1.0],
		"scale":[1.0,
		1.0,
		1.0],
		"mesh":4
	},
	{
		"name":"减面.3",
		"translation":[-249.14291381835938,
		0.0,
		-485.59100341796877],
		"rotation":[0.0,
		0.0,
		0.0,
		-1.0],
		"scale":[1.0,
		1.0,
		1.0],
		"children":[11]
	},
	{
		"name":"球体",
		"translation":[0.0,
		0.0,
		0.0],
		"rotation":[0.0,
		0.0,
		0.0,
		-1.0],
		"scale":[1.0,
		1.0,
		1.0],
		"mesh":5
	},
	{
		"name":"减面.2",
		"translation":[-313.85760498046877,
		0.0,
		-450.0599670410156],
		"rotation":[0.0,
		0.0,
		0.0,
		-1.0],
		"scale":[1.0,
		1.0,
		1.0],
		"children":[13]
	},
	{
		"name":"球体",
		"translation":[0.0,
		0.0,
		0.0],
		"rotation":[0.0,
		0.0,
		0.0,
		-1.0],
		"scale":[1.0,
		1.0,
		1.0],
		"mesh":6
	},
	{
		"name":"减面.1",
		"translation":[-515.2001953125,
		0.0,
		-94.74946594238281],
		"rotation":[0.0,
		0.0,
		0.0,
		-1.0],
		"scale":[1.0,
		1.0,
		1.0],
		"children":[15]
	},
	{
		"name":"球体",
		"translation":[0.0,
		0.0,
		0.0],
		"rotation":[0.0,
		0.0,
		0.0,
		-1.0],
		"scale":[1.0,
		1.0,
		1.0],
		"mesh":7
	},
	{
		"name":"减面",
		"translation":[-530.0048217773438,
		0.0,
		0.0],
		"rotation":[0.0,
		0.0,
		0.0,
		-1.0],
		"scale":[1.0,
		1.0,
		1.0],
		"children":[17]
	},
	{
		"name":"球体",
		"translation":[0.0,
		0.0,
		0.0],
		"rotation":[0.0,
		0.0,
		0.0,
		-1.0],
		"scale":[1.0,
		1.0,
		1.0],
		"mesh":8
	}],
	"meshes":[{
		"name":"球体",
		"primitives":[{
			"attributes":{
				"POSITION":1,
				"NORMAL":2,
				"TEXCOORD_0":3
			},
			"indices":0,
			"material":0
		}]
	},
	{
		"name":"球体",
		"primitives":[{
			"attributes":{
				"POSITION":5,
				"NORMAL":6,
				"TEXCOORD_0":7
			},
			"indices":4,
			"material":0
		}]
	},
	{
		"name":"球体",
		"primitives":[{
			"attributes":{
				"POSITION":9,
				"NORMAL":10,
				"TEXCOORD_0":11
			},
			"indices":8,
			"material":0
		}]
	},
	{
		"name":"球体",
		"primitives":[{
			"attributes":{
				"POSITION":13,
				"NORMAL":14,
				"TEXCOORD_0":15
			},
			"indices":12,
			"material":0
		}]
	},
	{
		"name":"球体",
		"primitives":[{
			"attributes":{
				"POSITION":17,
				"NORMAL":18,
				"TEXCOORD_0":19
			},
			"indices":16,
			"material":0
		}]
	},
	{
		"name":"球体",
		"primitives":[{
			"attributes":{
				"POSITION":21,
				"NORMAL":22,
				"TEXCOORD_0":23
			},
			"indices":20,
			"material":0
		}]
	},
	{
		"name":"球体",
		"primitives":[{
			"attributes":{
				"POSITION":25,
				"NORMAL":26,
				"TEXCOORD_0":27
			},
			"indices":24,
			"material":0
		}]
	},
	{
		"name":"球体",
		"primitives":[{
			"attributes":{
				"POSITION":29,
				"NORMAL":30,
				"TEXCOORD_0":31
			},
			"indices":28,
			"material":0
		}]
	},
	{
		"name":"球体",
		"primitives":[{
			"attributes":{
				"POSITION":33,
				"NORMAL":34,
				"TEXCOORD_0":35
			},
			"indices":32,
			"material":0
		}]
	}],
	"accessors":[{
		"bufferView":0,
		"type":"SCALAR",
		"componentType":5123,
		"count":72,
		"byteOffset":0,
		"min":[0],
		"max":[42]
	},
	{
		"bufferView":1,
		"type":"VEC3",
		"componentType":5126,
		"count":43,
		"byteOffset":0,
		"min":[-48.97651290893555,
		-50.91432571411133,
		-49.13617706298828],
		"max":[41.01666259765625,
		47.264495849609378,
		53.01179885864258]
	},
	{
		"bufferView":1,
		"type":"VEC3",
		"componentType":5126,
		"count":43,
		"byteOffset":12,
		"min":[-0.9104595184326172,
		-0.9912778735160828,
		-0.9687920212745667],
		"max":[0.983391523361206,
		0.9660483598709106,
		0.8881714940071106]
	},
	{
		"bufferView":1,
		"type":"VEC2",
		"componentType":5126,
		"count":43,
		"byteOffset":24,
		"min":[0.015625,
		0.0625],
		"max":[1.0,
		1.0]
	},
	{
		"bufferView":2,
		"type":"SCALAR",
		"componentType":5123,
		"count":72,
		"byteOffset":0,
		"min":[0],
		"max":[42]
	},
	{
		"bufferView":3,
		"type":"VEC3",
		"componentType":5126,
		"count":43,
		"byteOffset":0,
		"min":[-86.88636779785156,
		-90.32412719726563,
		-87.16960906982422],
		"max":[72.7652587890625,
		83.84917449951172,
		94.04512786865235]
	},
	{
		"bufferView":3,
		"type":"VEC3",
		"componentType":5126,
		"count":43,
		"byteOffset":12,
		"min":[-0.9104594588279724,
		-0.991277813911438,
		-0.9687920212745667],
		"max":[0.9833915829658508,
		0.9660484194755554,
		0.8881715536117554]
	},
	{
		"bufferView":3,
		"type":"VEC2",
		"componentType":5126,
		"count":43,
		"byteOffset":24,
		"min":[0.015625,
		0.0625],
		"max":[1.0,
		1.0]
	},
	{
		"bufferView":4,
		"type":"SCALAR",
		"componentType":5123,
		"count":72,
		"byteOffset":0,
		"min":[0],
		"max":[42]
	},
	{
		"bufferView":5,
		"type":"VEC3",
		"componentType":5126,
		"count":43,
		"byteOffset":0,
		"min":[-41.99002456665039,
		-43.65140914916992,
		-42.12691116333008],
		"max":[35.165645599365237,
		40.5222282409668,
		45.449676513671878]
	},
	{
		"bufferView":5,
		"type":"VEC3",
		"componentType":5126,
		"count":43,
		"byteOffset":12,
		"min":[-0.9104594588279724,
		-0.9912778735160828,
		-0.9687920212745667],
		"max":[0.9833916425704956,
		0.9660483598709106,
		0.8881716132164002]
	},
	{
		"bufferView":5,
		"type":"VEC2",
		"componentType":5126,
		"count":43,
		"byteOffset":24,
		"min":[0.015625,
		0.0625],
		"max":[1.0,
		1.0]
	},
	{
		"bufferView":6,
		"type":"SCALAR",
		"componentType":5123,
		"count":72,
		"byteOffset":0,
		"min":[0],
		"max":[42]
	},
	{
		"bufferView":7,
		"type":"VEC3",
		"componentType":5126,
		"count":43,
		"byteOffset":0,
		"min":[-41.99002456665039,
		-43.65140914916992,
		-42.12691116333008],
		"max":[35.165645599365237,
		40.5222282409668,
		45.449676513671878]
	},
	{
		"bufferView":7,
		"type":"VEC3",
		"componentType":5126,
		"count":43,
		"byteOffset":12,
		"min":[-0.9104594588279724,
		-0.9912778735160828,
		-0.9687920212745667],
		"max":[0.9833916425704956,
		0.9660483598709106,
		0.8881716132164002]
	},
	{
		"bufferView":7,
		"type":"VEC2",
		"componentType":5126,
		"count":43,
		"byteOffset":24,
		"min":[0.015625,
		0.0625],
		"max":[1.0,
		1.0]
	},
	{
		"bufferView":8,
		"type":"SCALAR",
		"componentType":5123,
		"count":72,
		"byteOffset":0,
		"min":[0],
		"max":[42]
	},
	{
		"bufferView":9,
		"type":"VEC3",
		"componentType":5126,
		"count":43,
		"byteOffset":0,
		"min":[-41.99002456665039,
		-43.65140914916992,
		-42.12691116333008],
		"max":[35.165645599365237,
		40.5222282409668,
		45.449676513671878]
	},
	{
		"bufferView":9,
		"type":"VEC3",
		"componentType":5126,
		"count":43,
		"byteOffset":12,
		"min":[-0.9104594588279724,
		-0.9912778735160828,
		-0.9687920212745667],
		"max":[0.9833916425704956,
		0.9660483598709106,
		0.8881716132164002]
	},
	{
		"bufferView":9,
		"type":"VEC2",
		"componentType":5126,
		"count":43,
		"byteOffset":24,
		"min":[0.015625,
		0.0625],
		"max":[1.0,
		1.0]
	},
	{
		"bufferView":10,
		"type":"SCALAR",
		"componentType":5123,
		"count":72,
		"byteOffset":0,
		"min":[0],
		"max":[42]
	},
	{
		"bufferView":11,
		"type":"VEC3",
		"componentType":5126,
		"count":43,
		"byteOffset":0,
		"min":[-48.97651290893555,
		-50.91432571411133,
		-49.13617706298828],
		"max":[41.01666259765625,
		47.264495849609378,
		53.01179885864258]
	},
	{
		"bufferView":11,
		"type":"VEC3",
		"componentType":5126,
		"count":43,
		"byteOffset":12,
		"min":[-0.9104595184326172,
		-0.9912778735160828,
		-0.9687920212745667],
		"max":[0.983391523361206,
		0.9660483598709106,
		0.8881714940071106]
	},
	{
		"bufferView":11,
		"type":"VEC2",
		"componentType":5126,
		"count":43,
		"byteOffset":24,
		"min":[0.015625,
		0.0625],
		"max":[1.0,
		1.0]
	},
	{
		"bufferView":12,
		"type":"SCALAR",
		"componentType":5123,
		"count":48,
		"byteOffset":0,
		"min":[0],
		"max":[31]
	},
	{
		"bufferView":13,
		"type":"VEC3",
		"componentType":5126,
		"count":32,
		"byteOffset":0,
		"min":[-62.4389762878418,
		-59.5614128112793,
		-52.37940216064453],
		"max":[51.94367980957031,
		60.25636672973633,
		54.332618713378909]
	},
	{
		"bufferView":13,
		"type":"VEC3",
		"componentType":5126,
		"count":32,
		"byteOffset":12,
		"min":[-0.8908796310424805,
		-0.9357466697692871,
		-0.9705960750579834],
		"max":[0.9808658361434937,
		0.8673713207244873,
		0.9076275825500488]
	},
	{
		"bufferView":13,
		"type":"VEC2",
		"componentType":5126,
		"count":32,
		"byteOffset":24,
		"min":[0.015625,
		0.0625],
		"max":[0.984375,
		0.90625]
	},
	{
		"bufferView":14,
		"type":"SCALAR",
		"componentType":5123,
		"count":72,
		"byteOffset":0,
		"min":[0],
		"max":[42]
	},
	{
		"bufferView":15,
		"type":"VEC3",
		"componentType":5126,
		"count":43,
		"byteOffset":0,
		"min":[-62.4389762878418,
		-64.9094467163086,
		-62.64252471923828],
		"max":[52.29115676879883,
		60.25636672973633,
		67.58346557617188]
	},
	{
		"bufferView":15,
		"type":"VEC3",
		"componentType":5126,
		"count":43,
		"byteOffset":12,
		"min":[-0.9104595184326172,
		-0.9912778735160828,
		-0.9687920212745667],
		"max":[0.983391523361206,
		0.9660484194755554,
		0.8881714940071106]
	},
	{
		"bufferView":15,
		"type":"VEC2",
		"componentType":5126,
		"count":43,
		"byteOffset":24,
		"min":[0.015625,
		0.0625],
		"max":[1.0,
		1.0]
	},
	{
		"bufferView":16,
		"type":"SCALAR",
		"componentType":5123,
		"count":36,
		"byteOffset":0,
		"min":[0],
		"max":[29]
	},
	{
		"bufferView":17,
		"type":"VEC3",
		"componentType":5126,
		"count":30,
		"byteOffset":0,
		"min":[-62.4389762878418,
		-59.5614128112793,
		-52.37940216064453],
		"max":[51.94367980957031,
		46.53324508666992,
		54.332618713378909]
	},
	{
		"bufferView":17,
		"type":"VEC3",
		"componentType":5126,
		"count":30,
		"byteOffset":12,
		"min":[-0.8401724100112915,
		-0.9357466697692871,
		-0.9206482172012329],
		"max":[0.9808658361434937,
		0.9724805355072022,
		0.9374447464942932]
	},
	{
		"bufferView":17,
		"type":"VEC2",
		"componentType":5126,
		"count":30,
		"byteOffset":24,
		"min":[0.015625,
		0.0625],
		"max":[0.984375,
		0.90625]
	}],
	"bufferViews":[{
		"buffer":0,
		"byteOffset":0,
		"byteLength":144,
		"target":34963
	},
	{
		"buffer":0,
		"byteOffset":144,
		"byteLength":1376,
		"target":34962,
		"byteStride":32
	},
	{
		"buffer":1,
		"byteOffset":0,
		"byteLength":144,
		"target":34963
	},
	{
		"buffer":1,
		"byteOffset":144,
		"byteLength":1376,
		"target":34962,
		"byteStride":32
	},
	{
		"buffer":2,
		"byteOffset":0,
		"byteLength":144,
		"target":34963
	},
	{
		"buffer":2,
		"byteOffset":144,
		"byteLength":1376,
		"target":34962,
		"byteStride":32
	},
	{
		"buffer":3,
		"byteOffset":0,
		"byteLength":144,
		"target":34963
	},
	{
		"buffer":3,
		"byteOffset":144,
		"byteLength":1376,
		"target":34962,
		"byteStride":32
	},
	{
		"buffer":4,
		"byteOffset":0,
		"byteLength":144,
		"target":34963
	},
	{
		"buffer":4,
		"byteOffset":144,
		"byteLength":1376,
		"target":34962,
		"byteStride":32
	},
	{
		"buffer":5,
		"byteOffset":0,
		"byteLength":144,
		"target":34963
	},
	{
		"buffer":5,
		"byteOffset":144,
		"byteLength":1376,
		"target":34962,
		"byteStride":32
	},
	{
		"buffer":6,
		"byteOffset":0,
		"byteLength":96,
		"target":34963
	},
	{
		"buffer":6,
		"byteOffset":96,
		"byteLength":1024,
		"target":34962,
		"byteStride":32
	},
	{
		"buffer":7,
		"byteOffset":0,
		"byteLength":144,
		"target":34963
	},
	{
		"buffer":7,
		"byteOffset":144,
		"byteLength":1376,
		"target":34962,
		"byteStride":32
	},
	{
		"buffer":8,
		"byteOffset":0,
		"byteLength":72,
		"target":34963
	},
	{
		"buffer":8,
		"byteOffset":72,
		"byteLength":960,
		"target":34962,
		"byteStride":32
	}]
}