{
	"buffers":[{
		"uri":"data:application/octet-stream;base64,",
		"byteLength":1820
	},
	{
		"uri":"data:application/octet-stream;base64,",
		"byteLength":1832
	},
	{
		"uri":"data:application/octet-stream;base64,",
		"byteLength":1832
	},
	{
		"uri":"data:application/octet-stream;base64,",
		"byteLength":1832
	},
	{
		"uri":"data:application/octet-stream;base64,",
		"byteLength":1832
	},
	{
		"uri":"data:application/octet-stream;base64,",
		"byteLength":1832
	},
	{
		"uri":"data:application/octet-stream;base64,",
		"byteLength":1832
	}],
	"asset":{
		"version":"2.0",
		"generator":"Created using the official Cinema 4D glTF Exporter 1.000x284978"
	},
	"materials":[{
		"pbrMetallicRoughness":{
			"baseColorFactor":[0.8,
			0.6000000000000001,
			0.6933333333333334,
			1.0],
			"metallicFactor":0.0,
			"roughnessFactor":0.5
		},
		"emissiveFactor":[0.0,
		0.0,
		0.0],
		"alphaMode":"OPAQUE",
		"doubleSided":true,
		"name":"材质.1"
	}],
	"scenes":[{
		"nodes":[0]
	}],
	"nodes":[{
		"name":"克隆",
		"translation":[0.0,
		0.0,
		0.0],
		"rotation":[0.6990676522254944,
		0.6990676522254944,
		-0.10632222890853882,
		-0.10632222890853882],
		"scale":[1.0,
		1.0,
		1.0],
		"children":[1,
		2,
		3,
		4,
		5,
		6]
	},
	{
		"name":"立方体 0",
		"translation":[3.1554436208840475e-30,
		80.0,
		0.0],
		"rotation":[1.810143157251432e-17,
		0.14780941605567933,
		1.2111951752893816e-16,
		0.9890158772468567],
		"scale":[1.0,
		1.0,
		1.0],
		"mesh":0
	},
	{
		"name":"立方体 1",
		"translation":[-3.944304526105059e-31,
		40.0,
		-69.28203582763672],
		"rotation":[0.49450793862342837,
		-0.128006711602211,
		0.07390470802783966,
		-0.8565128445625305],
		"scale":[1.0,
		1.0,
		1.0],
		"mesh":1
	},
	{
		"name":"立方体 2",
		"translation":[-7.888609052210118e-31,
		-40.0,
		-69.28203582763672],
		"rotation":[0.8565128445625305,
		-0.07390470802783966,
		0.128006711602211,
		-0.49450793862342837],
		"scale":[1.0,
		1.0,
		1.0],
		"mesh":2
	},
	{
		"name":"立方体 3",
		"translation":[-3.747089299799806e-30,
		-80.0,
		-1.0658141036401503e-14],
		"rotation":[0.9890158772468567,
		-5.1509039669489468e-17,
		0.14780941605567933,
		-6.961047124200379e-17],
		"scale":[1.0,
		1.0,
		1.0],
		"mesh":3
	},
	{
		"name":"立方体 4",
		"translation":[7.888609052210118e-31,
		-40.0,
		69.28203582763672],
		"rotation":[0.8565128445625305,
		0.07390470802783966,
		0.128006711602211,
		0.49450793862342837],
		"scale":[1.0,
		1.0,
		1.0],
		"mesh":4
	},
	{
		"name":"立方体 5",
		"translation":[0.0,
		40.0,
		69.28203582763672],
		"rotation":[0.49450793862342837,
		0.128006711602211,
		0.07390470802783966,
		0.8565128445625305],
		"scale":[1.0,
		1.0,
		1.0],
		"mesh":5
	}],
	"meshes":[{
		"name":"立方体 0",
		"primitives":[{
			"attributes":{
				"POSITION":3,
				"NORMAL":4,
				"TEXCOORD_0":5
			},
			"indices":2,
			"material":0
		}]
	},
	{
		"name":"立方体 1",
		"primitives":[{
			"attributes":{
				"POSITION":7,
				"NORMAL":8,
				"TEXCOORD_0":9
			},
			"indices":6,
			"material":0
		}]
	},
	{
		"name":"立方体 2",
		"primitives":[{
			"attributes":{
				"POSITION":11,
				"NORMAL":12,
				"TEXCOORD_0":13
			},
			"indices":10,
			"material":0
		}]
	},
	{
		"name":"立方体 3",
		"primitives":[{
			"attributes":{
				"POSITION":15,
				"NORMAL":16,
				"TEXCOORD_0":17
			},
			"indices":14,
			"material":0
		}]
	},
	{
		"name":"立方体 4",
		"primitives":[{
			"attributes":{
				"POSITION":19,
				"NORMAL":20,
				"TEXCOORD_0":21
			},
			"indices":18,
			"material":0
		}]
	},
	{
		"name":"立方体 5",
		"primitives":[{
			"attributes":{
				"POSITION":23,
				"NORMAL":24,
				"TEXCOORD_0":25
			},
			"indices":22,
			"material":0
		}]
	}],
	"accessors":[{
		"bufferView":0,
		"type":"SCALAR",
		"componentType":5126,
		"count":91,
		"byteOffset":0,
		"min":[0.0],
		"max":[3.0]
	},
	{
		"bufferView":0,
		"type":"VEC4",
		"componentType":5126,
		"count":91,
		"byteOffset":364,
		"min":[0.0,
		0.0,
		-0.7071067690849304,
		-0.7071067690849304],
		"max":[0.7071067690849304,
		0.7071067690849304,
		0.7071067690849304,
		0.7071067690849304]
	},
	{
		"bufferView":1,
		"type":"SCALAR",
		"componentType":5123,
		"count":84,
		"byteOffset":0,
		"min":[0],
		"max":[51]
	},
	{
		"bufferView":2,
		"type":"VEC3",
		"componentType":5126,
		"count":52,
		"byteOffset":0,
		"min":[-2.4595065116882326,
		-59.0257682800293,
		-55.163856506347659],
		"max":[53.55936050415039,
		108.33905792236328,
		55.163856506347659]
	},
	{
		"bufferView":2,
		"type":"VEC3",
		"componentType":5126,
		"count":52,
		"byteOffset":12,
		"min":[-0.9830148220062256,
		-0.8465535044670105,
		-1.0],
		"max":[0.9829012751579285,
		0.8376950621604919,
		1.0]
	},
	{
		"bufferView":2,
		"type":"VEC2",
		"componentType":5126,
		"count":52,
		"byteOffset":24,
		"min":[0.0,
		0.0],
		"max":[1.0,
		1.0]
	},
	{
		"bufferView":3,
		"type":"SCALAR",
		"componentType":5123,
		"count":84,
		"byteOffset":0,
		"min":[0],
		"max":[51]
	},
	{
		"bufferView":4,
		"type":"VEC3",
		"componentType":5126,
		"count":52,
		"byteOffset":0,
		"min":[-2.4595065116882326,
		-59.0257682800293,
		-55.163856506347659],
		"max":[53.55936050415039,
		108.33905792236328,
		55.163856506347659]
	},
	{
		"bufferView":4,
		"type":"VEC3",
		"componentType":5126,
		"count":52,
		"byteOffset":12,
		"min":[-0.9830148220062256,
		-0.8465535044670105,
		-1.0],
		"max":[0.9829012751579285,
		0.8376950621604919,
		1.0]
	},
	{
		"bufferView":4,
		"type":"VEC2",
		"componentType":5126,
		"count":52,
		"byteOffset":24,
		"min":[0.0,
		0.0],
		"max":[1.0,
		1.0]
	},
	{
		"bufferView":5,
		"type":"SCALAR",
		"componentType":5123,
		"count":84,
		"byteOffset":0,
		"min":[0],
		"max":[51]
	},
	{
		"bufferView":6,
		"type":"VEC3",
		"componentType":5126,
		"count":52,
		"byteOffset":0,
		"min":[-2.4595065116882326,
		-59.0257682800293,
		-55.163856506347659],
		"max":[53.55936050415039,
		108.33905792236328,
		55.163856506347659]
	},
	{
		"bufferView":6,
		"type":"VEC3",
		"componentType":5126,
		"count":52,
		"byteOffset":12,
		"min":[-0.9830148220062256,
		-0.8465535044670105,
		-1.0],
		"max":[0.9829012751579285,
		0.8376950621604919,
		1.0]
	},
	{
		"bufferView":6,
		"type":"VEC2",
		"componentType":5126,
		"count":52,
		"byteOffset":24,
		"min":[0.0,
		0.0],
		"max":[1.0,
		1.0]
	},
	{
		"bufferView":7,
		"type":"SCALAR",
		"componentType":5123,
		"count":84,
		"byteOffset":0,
		"min":[0],
		"max":[51]
	},
	{
		"bufferView":8,
		"type":"VEC3",
		"componentType":5126,
		"count":52,
		"byteOffset":0,
		"min":[-2.4595065116882326,
		-59.0257682800293,
		-55.163856506347659],
		"max":[53.55936050415039,
		108.33905792236328,
		55.163856506347659]
	},
	{
		"bufferView":8,
		"type":"VEC3",
		"componentType":5126,
		"count":52,
		"byteOffset":12,
		"min":[-0.9830148220062256,
		-0.8465535044670105,
		-1.0],
		"max":[0.9829012751579285,
		0.8376950621604919,
		1.0]
	},
	{
		"bufferView":8,
		"type":"VEC2",
		"componentType":5126,
		"count":52,
		"byteOffset":24,
		"min":[0.0,
		0.0],
		"max":[1.0,
		1.0]
	},
	{
		"bufferView":9,
		"type":"SCALAR",
		"componentType":5123,
		"count":84,
		"byteOffset":0,
		"min":[0],
		"max":[51]
	},
	{
		"bufferView":10,
		"type":"VEC3",
		"componentType":5126,
		"count":52,
		"byteOffset":0,
		"min":[-2.4595065116882326,
		-59.0257682800293,
		-55.163856506347659],
		"max":[53.55936050415039,
		108.33905792236328,
		55.163856506347659]
	},
	{
		"bufferView":10,
		"type":"VEC3",
		"componentType":5126,
		"count":52,
		"byteOffset":12,
		"min":[-0.9830148220062256,
		-0.8465535044670105,
		-1.0],
		"max":[0.9829012751579285,
		0.8376950621604919,
		1.0]
	},
	{
		"bufferView":10,
		"type":"VEC2",
		"componentType":5126,
		"count":52,
		"byteOffset":24,
		"min":[0.0,
		0.0],
		"max":[1.0,
		1.0]
	},
	{
		"bufferView":11,
		"type":"SCALAR",
		"componentType":5123,
		"count":84,
		"byteOffset":0,
		"min":[0],
		"max":[51]
	},
	{
		"bufferView":12,
		"type":"VEC3",
		"componentType":5126,
		"count":52,
		"byteOffset":0,
		"min":[-2.4595065116882326,
		-59.0257682800293,
		-55.163856506347659],
		"max":[53.55936050415039,
		108.33905792236328,
		55.163856506347659]
	},
	{
		"bufferView":12,
		"type":"VEC3",
		"componentType":5126,
		"count":52,
		"byteOffset":12,
		"min":[-0.9830148220062256,
		-0.8465535044670105,
		-1.0],
		"max":[0.9829012751579285,
		0.8376950621604919,
		1.0]
	},
	{
		"bufferView":12,
		"type":"VEC2",
		"componentType":5126,
		"count":52,
		"byteOffset":24,
		"min":[0.0,
		0.0],
		"max":[1.0,
		1.0]
	}],
	"bufferViews":[{
		"buffer":0,
		"byteOffset":0,
		"byteLength":1820
	},
	{
		"buffer":1,
		"byteOffset":0,
		"byteLength":168,
		"target":34963
	},
	{
		"buffer":1,
		"byteOffset":168,
		"byteLength":1664,
		"target":34962,
		"byteStride":32
	},
	{
		"buffer":2,
		"byteOffset":0,
		"byteLength":168,
		"target":34963
	},
	{
		"buffer":2,
		"byteOffset":168,
		"byteLength":1664,
		"target":34962,
		"byteStride":32
	},
	{
		"buffer":3,
		"byteOffset":0,
		"byteLength":168,
		"target":34963
	},
	{
		"buffer":3,
		"byteOffset":168,
		"byteLength":1664,
		"target":34962,
		"byteStride":32
	},
	{
		"buffer":4,
		"byteOffset":0,
		"byteLength":168,
		"target":34963
	},
	{
		"buffer":4,
		"byteOffset":168,
		"byteLength":1664,
		"target":34962,
		"byteStride":32
	},
	{
		"buffer":5,
		"byteOffset":0,
		"byteLength":168,
		"target":34963
	},
	{
		"buffer":5,
		"byteOffset":168,
		"byteLength":1664,
		"target":34962,
		"byteStride":32
	},
	{
		"buffer":6,
		"byteOffset":0,
		"byteLength":168,
		"target":34963
	},
	{
		"buffer":6,
		"byteOffset":168,
		"byteLength":1664,
		"target":34962,
		"byteStride":32
	}],
	"animations":[{
		"samplers":[{
			"input":0,
			"interpolation":"LINEAR",
			"output":1
		}],
		"channels":[{
			"sampler":0,
			"target":{
				"node":0,
				"path":"rotation"
			}
		}]
	}]
}